<?xml version="1.0" standalone="no"?>
<!DOCTYPE svg PUBLIC "-//W3C//DTD SVG 20010904//EN"
 "http://www.w3.org/TR/2001/REC-SVG-20010904/DTD/svg10.dtd">
<svg version="1.0" xmlns="http://www.w3.org/2000/svg"
 width="384.000000pt" height="132.000000pt" viewBox="0 0 384.000000 132.000000"
 preserveAspectRatio="xMidYMid meet">

<g transform="translate(0.000000,132.000000) scale(0.100000,-0.100000)"
fill="#000000" stroke="none">
<path d="M3310 1126 l0 -94 -37 -7 c-81 -15 -170 -79 -205 -149 -14 -27 -21
-60 -21 -101 -1 -121 33 -165 178 -236 l85 -41 0 -119 c0 -89 -3 -119 -12
-119 -20 1 -104 65 -131 102 -33 43 -82 142 -98 196 -7 23 -16 42 -21 42 -4 0
-8 -85 -8 -190 0 -181 10 -239 24 -148 4 23 12 48 18 55 15 19 49 16 83 -8 17
-11 56 -33 88 -50 l57 -29 0 -85 c0 -84 0 -85 25 -85 25 0 25 1 25 80 l0 80
53 0 c107 0 217 62 257 145 32 67 26 164 -15 231 -37 60 -84 93 -200 143 l-90
39 -3 115 -3 116 30 -9 c38 -11 51 -18 92 -55 55 -49 98 -107 115 -158 9 -26
20 -47 25 -47 5 0 9 65 9 145 0 141 -11 187 -24 105 -4 -24 -13 -43 -22 -47
-10 -4 -51 11 -98 35 -44 22 -91 44 -103 47 -22 6 -23 11 -23 101 0 94 0 94
-25 94 -25 0 -25 0 -25 -94z m0 -221 c0 -58 -3 -105 -6 -105 -14 0 -75 43 -89
63 -18 26 -20 77 -2 100 13 18 65 47 85 47 9 0 12 -28 12 -105z m125 -456 c73
-34 95 -59 95 -107 0 -66 -44 -102 -125 -102 l-45 0 0 120 c0 66 2 120 5 120
3 0 34 -14 70 -31z"/>
<path d="M1370 1019 c-123 -24 -249 -125 -289 -234 -42 -111 -37 -249 12 -355
12 -25 48 -72 82 -106 83 -84 145 -107 275 -102 89 3 100 6 179 47 98 51 130
50 190 -5 21 -19 41 -34 45 -34 3 0 6 72 6 159 0 181 4 191 71 191 21 0 39 5
39 10 0 6 -92 10 -255 10 -163 0 -255 -4 -255 -10 0 -5 20 -10 45 -10 76 0 85
-17 85 -161 0 -66 -4 -128 -10 -138 -14 -26 -64 -44 -103 -37 -34 6 -65 33
-85 71 -42 82 -58 374 -27 496 34 134 82 185 173 183 121 -2 215 -92 272 -258
32 -94 40 -71 40 113 0 168 -9 214 -30 154 -25 -71 -44 -76 -129 -33 -111 55
-217 71 -331 49z"/>
<path d="M2353 1015 c-128 -36 -232 -118 -281 -223 -24 -51 -27 -68 -27 -167
0 -104 2 -114 32 -176 41 -82 111 -150 201 -192 59 -28 79 -32 172 -35 87 -3
116 0 168 17 118 40 209 116 259 219 33 67 43 182 23 269 -25 113 -132 226
-259 274 -74 27 -216 35 -288 14z m192 -38 c18 -18 38 -51 44 -72 21 -77 33
-230 27 -349 -13 -241 -48 -315 -147 -316 -64 0 -92 29 -116 123 -26 104 -26
433 1 525 35 117 122 158 191 89z"/>
<path d="M421 708 c-57 -172 -116 -341 -132 -376 -30 -67 -51 -82 -114 -82
-19 0 -37 -4 -40 -10 -4 -7 48 -10 150 -10 149 0 199 11 99 23 -72 8 -78 34
-41 152 l23 70 97 3 98 3 20 -46 c11 -25 25 -71 32 -101 11 -51 10 -57 -8 -70
-10 -8 -36 -14 -57 -14 -21 0 -38 -4 -38 -10 0 -6 94 -10 261 -10 171 0 258 3
254 10 -3 6 -18 10 -33 10 -64 0 -70 12 -258 527 l-89 243 -60 0 -60 0 -104
-312z m99 -100 l39 -108 -94 0 -95 0 19 48 c10 26 31 85 46 132 25 75 29 82
37 60 5 -14 27 -73 48 -132z"/>
</g>
</svg>
