<?xml version="1.0" standalone="no"?>
<!DOCTYPE svg PUBLIC "-//W3C//DTD SVG 20010904//EN"
 "http://www.w3.org/TR/2001/REC-SVG-20010904/DTD/svg10.dtd">
<svg version="1.0" xmlns="http://www.w3.org/2000/svg"
 width="192.000000pt" height="132.000000pt" viewBox="0 0 192.000000 132.000000"
 preserveAspectRatio="xMidYMid meet">

<g transform="translate(0.000000,132.000000) scale(0.100000,-0.100000)"
fill="#000000" stroke="none">
<path d="M909 1179 c-13 -13 -19 -30 -17 -51 3 -28 0 -31 -53 -47 -31 -10 -83
-33 -116 -51 l-61 -34 -36 32 c-43 38 -75 40 -104 9 -33 -35 -28 -63 20 -106
l41 -39 -20 -33 c-11 -19 -27 -58 -34 -88 l-13 -53 -49 5 c-42 6 -52 3 -73
-18 -13 -13 -24 -33 -24 -45 0 -11 11 -32 24 -45 21 -21 31 -24 73 -18 l49 5
13 -53 c7 -30 22 -69 33 -88 l20 -35 -41 -38 c-47 -43 -52 -74 -18 -106 32
-30 60 -28 103 10 l36 32 61 -34 c33 -18 85 -41 116 -51 53 -16 56 -19 53 -47
-6 -62 74 -96 119 -51 14 14 19 30 17 52 -3 29 0 32 48 46 28 9 78 32 112 53
l62 36 41 -34 c48 -40 77 -43 107 -11 33 35 28 63 -22 108 l-45 41 24 44 c13
24 26 62 30 85 l7 42 55 -6 c49 -5 58 -3 79 18 30 31 30 59 0 90 -21 21 -30
23 -78 18 l-54 -5 -13 53 c-7 30 -22 68 -32 85 l-19 31 45 41 c51 47 57 77 22
110 -32 31 -59 27 -106 -12 l-42 -35 -48 31 c-27 16 -78 40 -113 53 -60 22
-63 24 -60 53 4 39 -27 72 -68 72 -17 0 -39 -9 -51 -21z m154 -304 c147 -71
182 -258 69 -371 -50 -50 -98 -69 -177 -69 -277 0 -339 356 -80 453 42 16 143
9 188 -13z"/>
</g>
</svg>
